HIERARCHY
ROOT Hips
{
	OFFSET 0.000000 0.000000 0.000000
	CHANNELS 6 Xposition Yposition Zposition Zrotation Yrotation Xrotation 
	JOINT LHipJoint
	{
		OFFSET 0.000000 0.000000 0.000000
		CHANNELS 3 Zrotation Yrotation Xrotation
		JOINT LeftUpLeg
		{
			OFFSET 1.363060 -1.794630 0.839290
			CHANNELS 3 Zrotation Yrotation Xrotation
			JOINT LeftLeg
			{
				OFFSET 2.448110 -6.726130 0.000000
				CHANNELS 3 Zrotation Yrotation Xrotation
				JOINT LeftFoot
				{
					OFFSET 2.562200 -7.039590 0.000000
					CHANNELS 3 Zrotation Yrotation Xrotation
					JOINT LeftToeBase
					{
						OFFSET 0.157640 -0.433110 2.322550
						CHANNELS 3 Zrotation Yrotation Xrotation
						End Site
						{
							OFFSET 0.000000 0.000000 0.000000
						}
					}
				}
			}
		}
	}
	JOINT RHipJoint
	{
		OFFSET 0.000000 0.000000 0.000000
		CHANNELS 3 Zrotation Yrotation Xrotation
		JOINT RightUpLeg
		{
			OFFSET -1.305520 -1.794630 0.839290
			CHANNELS 3 Zrotation Yrotation Xrotation
			JOINT RightLeg
			{
				OFFSET -2.542530 -6.985550 0.000000
				CHANNELS 3 Zrotation Yrotation Xrotation
				JOINT RightFoot
				{
					OFFSET -2.568260 -7.056230 0.000000
					CHANNELS 3 Zrotation Yrotation Xrotation
					JOINT RightToeBase
					{
						OFFSET -0.164730 -0.452590 2.363150
						CHANNELS 3 Zrotation Yrotation Xrotation
						End Site
						{
							OFFSET 0.000000 0.000000 0.000000
						}
					}
				}
			}
		}
	}
}
MOTION
Frames: 22
Frame Time: 0.008333
16.815833 16.271424 2.890858 140.751937 -87.971096 -113.108705 -9.366300 2.595635 5.192593 -13.180992 -5.463237 -29.003738 -2.193649 -0.199663 34.396856 3.019036 8.975761 -27.460167 -3.944700 -0.000000 -31.608699 11.937747 -3.146876 1.523575 5.226971 -8.283943 -30.498817 -1.011830 -3.428182 62.627353 -2.496365 -13.406576 1.252955 -2.238300 -0.000001 -35.196701
16.560790 16.346571 2.919658 149.779539 -88.135795 -122.257233 -9.717094 2.627029 5.156907 -12.428285 -4.983130 -26.905478 -2.136842 -0.368728 32.030182 2.770607 8.654188 -25.569334 -3.468600 0.000000 -33.972800 11.611990 -3.072456 1.581821 5.948975 -7.562012 -32.079455 -1.004376 -3.498024 63.303050 -2.469054 -13.140420 0.071209 -1.974000 -0.000000 -34.592800
16.303127 16.420832 2.947787 161.274644 -88.225120 -133.825714 -10.067239 2.694788 5.140066 -11.660885 -4.557325 -24.951360 -2.055439 -0.495774 29.784282 2.516446 8.369038 -23.430355 -2.967600 0.000000 -36.550300 11.287234 -2.968163 1.647927 6.694385 -6.828831 -33.691684 -0.991144 -3.539867 63.789434 -2.439220 -12.837481 -1.005124 -1.735000 -0.000001 -34.250599
16.042429 16.493817 2.974474 175.345760 -88.245768 -147.919973 -10.371315 2.810344 5.136694 -10.885624 -4.182962 -23.157486 -1.952177 -0.579447 27.690194 2.265935 8.127037 -21.067340 -2.452400 -0.000000 -39.324000 11.006047 -2.824488 1.727619 7.464794 -6.084477 -35.325102 -0.966410 -3.559000 64.076574 -2.409122 -12.511248 -2.024031 -1.514100 0.000000 -34.018700
15.778784 16.565203 2.998482 -168.891176 -88.275841 -163.656532 -10.581294 2.956805 5.135452 -10.123322 -3.878754 -21.515868 -1.825877 -0.634448 25.767008 2.028615 7.928224 -18.506110 -1.933700 -0.000000 -42.228301 10.810351 -2.666936 1.830484 8.239551 -5.357650 -36.982704 -0.914779 -3.585600 64.153142 -2.379568 -12.161866 -3.023963 -1.303300 0.000000 -33.724900
15.512469 16.634780 3.020681 -150.632662 -88.401635 178.157502 -10.747462 3.086146 5.120772 -9.351856 -3.610763 -20.032997 -1.674570 -0.675412 24.049530 1.800607 7.721534 -15.775386 -1.414400 0.000000 -45.326900 10.645547 -2.561714 1.962289 9.033537 -4.651131 -38.647535 -0.822993 -3.643056 63.987692 -2.356057 -11.816195 -4.005565 -1.106600 0.000000 -33.287501
15.243592 16.702086 3.039043 -132.869160 -88.587640 160.507377 -10.948935 3.191109 5.109691 -8.686174 -3.412246 -18.686675 -1.516005 -0.700828 22.488802 1.589695 7.540790 -12.907308 -0.908501 -0.000000 -48.437000 10.432121 -2.510864 2.111802 9.713895 -3.986828 -40.332620 -0.707071 -3.711345 63.621011 -2.334849 -11.441768 -4.984525 -0.917500 0.000000 -32.583800
14.972365 16.766810 3.053927 -116.019395 -88.730586 143.808216 -11.202345 3.302919 5.107045 -8.111596 -3.230668 -17.484817 -1.364612 -0.695928 21.058090 1.398403 7.379103 -9.946705 -0.422000 -0.000001 -51.525600 10.158595 -2.466348 2.273947 10.288037 -3.306598 -42.002700 -0.585166 -3.751575 63.063301 -2.314979 -11.038175 -5.934962 -0.742000 0.000000 -31.643300
14.699099 16.828473 3.064897 -101.176461 -88.800614 129.148756 -11.461403 3.440651 5.110607 -7.619063 -3.058711 -16.404704 -1.225484 -0.662058 19.721373 1.233473 7.244058 -6.933633 0.037500 0.000000 -54.472500 9.872418 -2.396283 2.449542 10.758956 -2.592897 -43.643743 -0.461030 -3.758015 62.328346 -2.291517 -10.586767 -6.833484 -0.583100 -0.000000 -30.537800
14.423835 16.886695 3.073399 -88.089987 -88.773358 116.278258 -11.711976 3.596507 5.107876 -7.138019 -2.847051 -15.445252 -1.095607 -0.606220 18.478050 1.091919 7.088843 -3.899758 0.461800 -0.000000 -57.279600 9.588447 -2.311656 2.646372 11.192668 -1.809847 -45.232911 -0.329208 -3.736966 61.395646 -2.264019 -10.097986 -7.636196 -0.450200 0.000001 -29.475700
14.146965 16.940874 3.078485 -77.716241 -88.694305 106.146400 -11.928654 3.763933 5.099461 -6.697024 -2.636238 -14.558375 -0.975027 -0.539716 17.282763 0.978946 6.937913 -0.871788 0.845601 0.000000 -59.768700 9.329437 -2.216770 2.861999 11.557718 -0.993064 -46.785587 -0.185364 -3.702557 60.290424 -2.223290 -9.532291 -8.339204 -0.341100 -0.000000 -28.583800
13.868425 16.990522 3.080880 -69.730394 -88.577312 98.427988 -12.118765 3.932168 5.082155 -6.276706 -2.418302 -13.724356 -0.861715 -0.469162 16.117910 0.892356 6.777971 2.131783 1.184900 0.000000 -61.891000 9.087628 -2.128699 3.096807 11.876545 -0.147524 -48.300352 -0.023988 -3.661160 59.008926 -2.163719 -8.873283 -8.927969 -0.257600 0.000000 -28.053700
13.581266 17.034926 3.093103 -47.178026 -87.936055 76.391516 -12.380986 4.142661 5.309943 -5.280597 -2.793340 -13.608631 -0.713917 -0.362665 15.472431 0.823961 6.349291 4.910470 1.393900 -0.000001 -63.751200 8.768271 -2.056752 3.279738 12.782693 0.157800 -49.981773 0.199060 -3.566348 57.374444 -2.096227 -8.177812 -9.366777 -0.212100 0.000001 -28.091701
13.299029 17.074100 3.093011 -45.455445 -87.729631 74.978168 -12.557668 4.287352 5.262924 -4.839430 -2.487413 -12.859379 -0.608493 -0.297667 14.353952 0.781554 6.095579 7.810729 1.606600 -0.000000 -65.044400 8.523932 -2.034362 3.560126 13.093974 1.067134 -51.401451 0.420027 -3.521087 55.678142 -1.982623 -7.290770 -9.680823 -0.181700 0.000000 -28.903100
13.014666 17.107088 3.092379 -44.685709 -87.534040 74.534755 -12.746932 4.420120 5.202703 -4.390949 -2.122026 -12.138826 -0.509368 -0.235000 13.247513 0.757976 5.790632 10.647925 1.754600 0.000000 -65.880700 8.259790 -2.055078 3.860376 13.421512 1.984958 -52.763470 0.678001 -3.466011 53.741593 -1.831123 -6.265128 -9.833345 -0.175400 -0.000000 -30.612800
12.727848 17.133263 3.091779 -44.698177 -87.347070 74.886538 -12.954202 4.541175 5.126618 -3.929541 -1.669264 -11.447027 -0.417772 -0.175101 12.158884 0.750727 5.417953 13.411115 1.828700 -0.000000 -66.270300 7.972086 -2.126346 4.182161 13.786657 2.902301 -54.048001 0.981274 -3.396114 51.524381 -1.637014 -5.102682 -9.796053 -0.190300 0.000000 -33.283200
12.438299 17.151902 3.091329 -45.227010 -87.168666 75.760683 -13.177870 4.652881 5.032322 -3.460988 -1.106387 -10.783374 -0.336458 -0.118273 11.097114 0.757751 4.966017 16.088943 1.820001 0.000000 -66.233400 7.664911 -2.249973 4.526472 14.198064 3.800975 -55.231922 1.337540 -3.305090 48.993924 -1.397138 -3.815158 -9.544933 -0.218700 0.000001 -36.795201
12.145690 17.162136 3.090925 -46.001245 -86.998520 76.878711 -13.413805 4.758683 4.917190 -2.992754 -0.411724 -10.145288 -0.268859 -0.064701 10.073201 0.776990 4.423599 18.668961 1.719500 0.000000 -65.807000 7.346143 -2.422850 4.893344 14.658569 4.661805 -56.285484 1.752265 -3.184512 46.133282 -1.112218 -2.431699 -9.065699 -0.249300 0.000000 -40.810300
11.849955 17.163076 3.090295 -46.775921 -86.837454 77.980654 -13.656510 4.862392 4.778385 -2.532406 0.432137 -9.526051 -0.218621 -0.014201 9.100043 0.806494 3.780691 21.135860 1.518500 0.000000 -65.034900 7.026154 -2.634719 5.279768 15.162554 5.465967 -57.174887 2.224977 -3.024579 42.956983 -0.788331 -1.001215 -8.355650 -0.268800 0.000000 -44.837700
11.551054 17.153625 3.088644 -47.279765 -86.696483 78.780992 -13.895812 4.970525 4.617061 -2.097658 1.422355 -8.913211 -0.189878 0.033259 8.188430 0.844781 3.039955 23.471585 1.214900 -0.000001 -63.957500 6.722004 -2.864478 5.677540 15.684772 6.185894 -57.880258 2.743850 -2.817614 39.536178 -0.436586 0.416006 -7.426474 -0.265001 -0.000000 -48.397000
11.249242 17.132817 3.085253 -47.327746 -86.587961 79.076338 -14.123343 5.089387 4.436818 -1.701184 2.544982 -8.292354 -0.185288 0.077886 7.350445 0.890228 2.209064 25.654917 0.811400 0.000000 -62.609400 6.449797 -3.086288 6.072659 16.194203 6.797917 -58.397723 3.283737 -2.562727 36.002747 -0.074745 1.747774 -6.308156 -0.230399 -0.000000 -51.169200
10.944854 17.099904 3.079643 -46.836355 -86.519198 78.767559 -14.334106 5.224005 4.243866 -1.343927 3.778269 -7.652707 -0.204973 0.119768 6.602250 0.940883 1.298497 27.660295 0.314700 0.000000 -61.015300 6.221140 -3.276539 6.447483 16.663168 7.290519 -58.746149 3.808711 -2.271266 32.548166 0.273374 2.920303 -5.067533 -0.165401 0.000000 -53.014401
